<svg xmlns="http://www.w3.org/2000/svg" viewBox="0 0 320 80" width="100%" height="100%">
  <defs>
    <filter id="shadow" x="-10%" y="-10%" width="130%" height="130%">
      <feDropShadow dx="0" dy="4" stdDeviation="4" flood-color="#D97706" flood-opacity="0.1" />
    </filter>
  </defs>

  <rect width="320" height="80" rx="16" fill="#FDFBF7" />

  <g transform="translate(16, 16)">
    <rect width="48" height="48" rx="12" fill="#D97706" filter="url(#shadow)" />
    
    <g transform="translate(12, 12)">
      <path d="M21 16V8a2 2 0 0 0-1-1.73l-7-4a2 2 0 0 0-2 0l-7 4A2 2 0 0 0 3 8v8a2 2 0 0 0 1 1.73l7 4a2 2 0 0 0 2 0l7-4A2 2 0 0 0 21 16z" 
            fill="none" stroke="#FFFFFF" stroke-width="2.5" stroke-linecap="round" stroke-linejoin="round"/>
      <path d="M3.27 6.96L12 12.01l8.73-5.05" 
            fill="none" stroke="#FFFFFF" stroke-width="2.5" stroke-linecap="round" stroke-linejoin="round"/>
      <line x1="12" y1="22.08" x2="12" y2="12" 
            fill="none" stroke="#FFFFFF" stroke-width="2.5" stroke-linecap="round" stroke-linejoin="round"/>
    </g>

    <text x="64" y="26" font-family="system-ui, -apple-system, sans-serif" font-size="22" font-weight="800" letter-spacing="-0.05em" fill="#292524">
      AMBER<tspan fill="#D97706">CART</tspan>
    </text>
    
    <text x="65" y="42" font-family="system-ui, -apple-system, sans-serif" font-size="10" font-weight="600" letter-spacing="0.2em" fill="#78716c" text-transform="uppercase">
      MARKETPLACE
    </text>
  </g>
</svg>
